G04 #@! TF.GenerationSoftware,KiCad,Pcbnew,5.1.5+dfsg1-2build2*
G04 #@! TF.CreationDate,2020-10-19T23:11:39-07:00*
G04 #@! TF.ProjectId,evc_seriously,6576635f-7365-4726-996f-75736c792e6b,rev?*
G04 #@! TF.SameCoordinates,Original*
G04 #@! TF.FileFunction,Legend,Top*
G04 #@! TF.FilePolarity,Positive*
%FSLAX46Y46*%
G04 Gerber Fmt 4.6, Leading zero omitted, Abs format (unit mm)*
G04 Created by KiCad (PCBNEW 5.1.5+dfsg1-2build2) date 2020-10-19 23:11:39*
%MOMM*%
%LPD*%
G04 APERTURE LIST*
%ADD10C,0.120000*%
%ADD11C,0.150000*%
G04 APERTURE END LIST*
D10*
X174115000Y-116000000D02*
X174115000Y-119860000D01*
X174115000Y-119860000D02*
X174360000Y-119860000D01*
X174115000Y-116000000D02*
X174115000Y-112140000D01*
X174115000Y-112140000D02*
X174360000Y-112140000D01*
X185885000Y-116000000D02*
X185885000Y-119860000D01*
X185885000Y-119860000D02*
X185640000Y-119860000D01*
X185885000Y-116000000D02*
X185885000Y-112140000D01*
X185885000Y-112140000D02*
X185640000Y-112140000D01*
X185640000Y-112140000D02*
X185640000Y-110325000D01*
X171849721Y-107390000D02*
X172175279Y-107390000D01*
X171849721Y-108410000D02*
X172175279Y-108410000D01*
X194768000Y-107460000D02*
X194768000Y-105760000D01*
X194768000Y-101940000D02*
X194768000Y-103640000D01*
X190312437Y-101940000D02*
X194768000Y-101940000D01*
X190312437Y-107460000D02*
X194768000Y-107460000D01*
X189248000Y-106395563D02*
X189248000Y-105760000D01*
X189248000Y-103004437D02*
X189248000Y-103640000D01*
X189248000Y-103004437D02*
X190312437Y-101940000D01*
X189248000Y-106395563D02*
X190312437Y-107460000D01*
X188383000Y-103015000D02*
X189008000Y-103015000D01*
X188695500Y-102702500D02*
X188695500Y-103327500D01*
X179037221Y-109010000D02*
X179362779Y-109010000D01*
X179037221Y-107990000D02*
X179362779Y-107990000D01*
X204160000Y-107464000D02*
X204160000Y-105764000D01*
X204160000Y-101944000D02*
X204160000Y-103644000D01*
X199704437Y-101944000D02*
X204160000Y-101944000D01*
X199704437Y-107464000D02*
X204160000Y-107464000D01*
X198640000Y-106399563D02*
X198640000Y-105764000D01*
X198640000Y-103008437D02*
X198640000Y-103644000D01*
X198640000Y-103008437D02*
X199704437Y-101944000D01*
X198640000Y-106399563D02*
X199704437Y-107464000D01*
X197775000Y-103019000D02*
X198400000Y-103019000D01*
X198087500Y-102706500D02*
X198087500Y-103331500D01*
X158637221Y-111610000D02*
X158962779Y-111610000D01*
X158637221Y-110590000D02*
X158962779Y-110590000D01*
X194662779Y-115190000D02*
X194337221Y-115190000D01*
X194662779Y-116210000D02*
X194337221Y-116210000D01*
X170562779Y-106810000D02*
X170237221Y-106810000D01*
X170562779Y-105790000D02*
X170237221Y-105790000D01*
X170562779Y-118990000D02*
X170237221Y-118990000D01*
X170562779Y-120010000D02*
X170237221Y-120010000D01*
X158962779Y-106810000D02*
X158637221Y-106810000D01*
X158962779Y-105790000D02*
X158637221Y-105790000D01*
X204062779Y-115190000D02*
X203737221Y-115190000D01*
X204062779Y-116210000D02*
X203737221Y-116210000D01*
X183762779Y-109010000D02*
X183437221Y-109010000D01*
X183762779Y-107990000D02*
X183437221Y-107990000D01*
X205415000Y-125960000D02*
X208100000Y-125960000D01*
X205415000Y-124040000D02*
X205415000Y-125960000D01*
X208100000Y-124040000D02*
X205415000Y-124040000D01*
X208100000Y-126140000D02*
X205415000Y-126140000D01*
X205415000Y-126140000D02*
X205415000Y-128060000D01*
X205415000Y-128060000D02*
X208100000Y-128060000D01*
X155435000Y-120630000D02*
X155435000Y-119807530D01*
X155435000Y-117922470D02*
X155435000Y-117100000D01*
X155435000Y-119192470D02*
X155435000Y-118537530D01*
X150420000Y-120630000D02*
X155435000Y-120630000D01*
X148965000Y-117100000D02*
X155435000Y-117100000D01*
X150420000Y-120630000D02*
X150420000Y-120063471D01*
X150420000Y-118936529D02*
X150420000Y-118793471D01*
X150366529Y-118740000D02*
X150223471Y-118740000D01*
X149096529Y-118740000D02*
X148965000Y-118740000D01*
X148965000Y-118740000D02*
X148965000Y-118537530D01*
X148965000Y-117922470D02*
X148965000Y-117100000D01*
X149660000Y-120630000D02*
X148900000Y-120630000D01*
X148900000Y-120630000D02*
X148900000Y-119500000D01*
X215380000Y-121410000D02*
X220580000Y-121410000D01*
X215380000Y-111190000D02*
X215380000Y-121410000D01*
X220580000Y-108590000D02*
X220580000Y-121410000D01*
X215380000Y-111190000D02*
X217980000Y-111190000D01*
X217980000Y-111190000D02*
X217980000Y-108590000D01*
X217980000Y-108590000D02*
X220580000Y-108590000D01*
X215380000Y-109920000D02*
X215380000Y-108590000D01*
X215380000Y-108590000D02*
X216710000Y-108590000D01*
X140402000Y-108670000D02*
X141732000Y-108670000D01*
X140402000Y-110000000D02*
X140402000Y-108670000D01*
X143002000Y-108670000D02*
X145602000Y-108670000D01*
X143002000Y-111270000D02*
X143002000Y-108670000D01*
X140402000Y-111270000D02*
X143002000Y-111270000D01*
X145602000Y-108670000D02*
X145602000Y-121490000D01*
X140402000Y-111270000D02*
X140402000Y-121490000D01*
X140402000Y-121490000D02*
X145602000Y-121490000D01*
X170562779Y-103610000D02*
X170237221Y-103610000D01*
X170562779Y-102590000D02*
X170237221Y-102590000D01*
X158962779Y-103610000D02*
X158637221Y-103610000D01*
X158962779Y-102590000D02*
X158637221Y-102590000D01*
X188190000Y-113237221D02*
X188190000Y-113562779D01*
X189210000Y-113237221D02*
X189210000Y-113562779D01*
X170562779Y-104190000D02*
X170237221Y-104190000D01*
X170562779Y-105210000D02*
X170237221Y-105210000D01*
X194337221Y-113592000D02*
X194662779Y-113592000D01*
X194337221Y-114612000D02*
X194662779Y-114612000D01*
X191224721Y-113590000D02*
X191550279Y-113590000D01*
X191224721Y-114610000D02*
X191550279Y-114610000D01*
X197590000Y-113562779D02*
X197590000Y-113237221D01*
X198610000Y-113562779D02*
X198610000Y-113237221D01*
X170237221Y-121610000D02*
X170562779Y-121610000D01*
X170237221Y-120590000D02*
X170562779Y-120590000D01*
X158637221Y-108410000D02*
X158962779Y-108410000D01*
X158637221Y-107390000D02*
X158962779Y-107390000D01*
X203737221Y-114612000D02*
X204062779Y-114612000D01*
X203737221Y-113592000D02*
X204062779Y-113592000D01*
X200624721Y-113590000D02*
X200950279Y-113590000D01*
X200624721Y-114610000D02*
X200950279Y-114610000D01*
X154049721Y-115390000D02*
X154375279Y-115390000D01*
X154049721Y-116410000D02*
X154375279Y-116410000D01*
X150162779Y-113790000D02*
X149837221Y-113790000D01*
X150162779Y-114810000D02*
X149837221Y-114810000D01*
X154362779Y-113790000D02*
X154037221Y-113790000D01*
X154362779Y-114810000D02*
X154037221Y-114810000D01*
X149824721Y-112190000D02*
X150150279Y-112190000D01*
X149824721Y-113210000D02*
X150150279Y-113210000D01*
X210637221Y-124490000D02*
X210962779Y-124490000D01*
X210637221Y-125510000D02*
X210962779Y-125510000D01*
X210637221Y-127610000D02*
X210962779Y-127610000D01*
X210637221Y-126590000D02*
X210962779Y-126590000D01*
X149837221Y-124090000D02*
X150162779Y-124090000D01*
X149837221Y-125110000D02*
X150162779Y-125110000D01*
X149849721Y-110590000D02*
X150175279Y-110590000D01*
X149849721Y-111610000D02*
X150175279Y-111610000D01*
X154037221Y-112190000D02*
X154362779Y-112190000D01*
X154037221Y-113210000D02*
X154362779Y-113210000D01*
X158962779Y-105210000D02*
X158637221Y-105210000D01*
X158962779Y-104190000D02*
X158637221Y-104190000D01*
X164600000Y-102140000D02*
X162650000Y-102140000D01*
X164600000Y-102140000D02*
X166550000Y-102140000D01*
X164600000Y-107260000D02*
X162650000Y-107260000D01*
X164600000Y-107260000D02*
X168050000Y-107260000D01*
X195300000Y-108400000D02*
X190700000Y-108400000D01*
X191200000Y-112800000D02*
X195300000Y-112800000D01*
X190960078Y-112800000D02*
G75*
G03X190960078Y-112800000I-160078J0D01*
G01*
X204700000Y-108400000D02*
X200100000Y-108400000D01*
X200600000Y-112800000D02*
X204700000Y-112800000D01*
X200360078Y-112800000D02*
G75*
G03X200360078Y-112800000I-160078J0D01*
G01*
X161290000Y-111690000D02*
X160990000Y-111690000D01*
X160990000Y-111690000D02*
X160990000Y-111990000D01*
X167910000Y-111690000D02*
X168210000Y-111690000D01*
X168210000Y-111690000D02*
X168210000Y-111990000D01*
X161290000Y-118910000D02*
X160990000Y-118910000D01*
X160990000Y-118910000D02*
X160990000Y-118610000D01*
X167910000Y-118910000D02*
X168210000Y-118910000D01*
X168210000Y-118910000D02*
X168210000Y-118610000D01*
X168210000Y-118610000D02*
X169525000Y-118610000D01*
X181400000Y-102140000D02*
X179450000Y-102140000D01*
X181400000Y-102140000D02*
X183350000Y-102140000D01*
X181400000Y-107260000D02*
X179450000Y-107260000D01*
X181400000Y-107260000D02*
X184850000Y-107260000D01*
X154300000Y-102600000D02*
G75*
G03X154300000Y-102600000I-700000J0D01*
G01*
X212100000Y-102600000D02*
G75*
G03X212100000Y-102600000I-700000J0D01*
G01*
X210000000Y-102600000D02*
G75*
G03X210000000Y-102600000I-700000J0D01*
G01*
X207900000Y-102600000D02*
G75*
G03X207900000Y-102600000I-700000J0D01*
G01*
X177022000Y-105100000D02*
X175022000Y-105100000D01*
X177022000Y-102300000D02*
X177022000Y-105100000D01*
X175022000Y-102300000D02*
X177022000Y-102300000D01*
X175022000Y-105100000D02*
X175022000Y-102300000D01*
X175022000Y-108879000D02*
X175022000Y-106079000D01*
X175022000Y-106079000D02*
X177022000Y-106079000D01*
X177022000Y-106079000D02*
X177022000Y-108879000D01*
X177022000Y-108879000D02*
X175022000Y-108879000D01*
X149650000Y-129850000D02*
X150575000Y-129850000D01*
X149650000Y-126150000D02*
X154350000Y-126150000D01*
X154450000Y-127725000D02*
X154450000Y-128275000D01*
X149550000Y-127725000D02*
X149550000Y-128275000D01*
X153425000Y-129850000D02*
X154350000Y-129850000D01*
X197390000Y-109241422D02*
X197390000Y-109758578D01*
X198810000Y-109241422D02*
X198810000Y-109758578D01*
X187990000Y-109203922D02*
X187990000Y-109721078D01*
X189410000Y-109203922D02*
X189410000Y-109721078D01*
X152200000Y-102600000D02*
G75*
G03X152200000Y-102600000I-700000J0D01*
G01*
D11*
X171845833Y-109657142D02*
X171798214Y-109704761D01*
X171655357Y-109752380D01*
X171560119Y-109752380D01*
X171417261Y-109704761D01*
X171322023Y-109609523D01*
X171274404Y-109514285D01*
X171226785Y-109323809D01*
X171226785Y-109180952D01*
X171274404Y-108990476D01*
X171322023Y-108895238D01*
X171417261Y-108800000D01*
X171560119Y-108752380D01*
X171655357Y-108752380D01*
X171798214Y-108800000D01*
X171845833Y-108847619D01*
X172179166Y-108752380D02*
X172798214Y-108752380D01*
X172464880Y-109133333D01*
X172607738Y-109133333D01*
X172702976Y-109180952D01*
X172750595Y-109228571D01*
X172798214Y-109323809D01*
X172798214Y-109561904D01*
X172750595Y-109657142D01*
X172702976Y-109704761D01*
X172607738Y-109752380D01*
X172322023Y-109752380D01*
X172226785Y-109704761D01*
X172179166Y-109657142D01*
X191841333Y-101357142D02*
X191793714Y-101404761D01*
X191650857Y-101452380D01*
X191555619Y-101452380D01*
X191412761Y-101404761D01*
X191317523Y-101309523D01*
X191269904Y-101214285D01*
X191222285Y-101023809D01*
X191222285Y-100880952D01*
X191269904Y-100690476D01*
X191317523Y-100595238D01*
X191412761Y-100500000D01*
X191555619Y-100452380D01*
X191650857Y-100452380D01*
X191793714Y-100500000D01*
X191841333Y-100547619D01*
X192698476Y-100785714D02*
X192698476Y-101452380D01*
X192460380Y-100404761D02*
X192222285Y-101119047D01*
X192841333Y-101119047D01*
X179033333Y-101657142D02*
X178985714Y-101704761D01*
X178842857Y-101752380D01*
X178747619Y-101752380D01*
X178604761Y-101704761D01*
X178509523Y-101609523D01*
X178461904Y-101514285D01*
X178414285Y-101323809D01*
X178414285Y-101180952D01*
X178461904Y-100990476D01*
X178509523Y-100895238D01*
X178604761Y-100800000D01*
X178747619Y-100752380D01*
X178842857Y-100752380D01*
X178985714Y-100800000D01*
X179033333Y-100847619D01*
X179938095Y-100752380D02*
X179461904Y-100752380D01*
X179414285Y-101228571D01*
X179461904Y-101180952D01*
X179557142Y-101133333D01*
X179795238Y-101133333D01*
X179890476Y-101180952D01*
X179938095Y-101228571D01*
X179985714Y-101323809D01*
X179985714Y-101561904D01*
X179938095Y-101657142D01*
X179890476Y-101704761D01*
X179795238Y-101752380D01*
X179557142Y-101752380D01*
X179461904Y-101704761D01*
X179414285Y-101657142D01*
X201233333Y-101361142D02*
X201185714Y-101408761D01*
X201042857Y-101456380D01*
X200947619Y-101456380D01*
X200804761Y-101408761D01*
X200709523Y-101313523D01*
X200661904Y-101218285D01*
X200614285Y-101027809D01*
X200614285Y-100884952D01*
X200661904Y-100694476D01*
X200709523Y-100599238D01*
X200804761Y-100504000D01*
X200947619Y-100456380D01*
X201042857Y-100456380D01*
X201185714Y-100504000D01*
X201233333Y-100551619D01*
X202090476Y-100456380D02*
X201900000Y-100456380D01*
X201804761Y-100504000D01*
X201757142Y-100551619D01*
X201661904Y-100694476D01*
X201614285Y-100884952D01*
X201614285Y-101265904D01*
X201661904Y-101361142D01*
X201709523Y-101408761D01*
X201804761Y-101456380D01*
X201995238Y-101456380D01*
X202090476Y-101408761D01*
X202138095Y-101361142D01*
X202185714Y-101265904D01*
X202185714Y-101027809D01*
X202138095Y-100932571D01*
X202090476Y-100884952D01*
X201995238Y-100837333D01*
X201804761Y-100837333D01*
X201709523Y-100884952D01*
X201661904Y-100932571D01*
X201614285Y-101027809D01*
X158633333Y-110027142D02*
X158585714Y-110074761D01*
X158442857Y-110122380D01*
X158347619Y-110122380D01*
X158204761Y-110074761D01*
X158109523Y-109979523D01*
X158061904Y-109884285D01*
X158014285Y-109693809D01*
X158014285Y-109550952D01*
X158061904Y-109360476D01*
X158109523Y-109265238D01*
X158204761Y-109170000D01*
X158347619Y-109122380D01*
X158442857Y-109122380D01*
X158585714Y-109170000D01*
X158633333Y-109217619D01*
X158966666Y-109122380D02*
X159633333Y-109122380D01*
X159204761Y-110122380D01*
X194333333Y-118957142D02*
X194285714Y-119004761D01*
X194142857Y-119052380D01*
X194047619Y-119052380D01*
X193904761Y-119004761D01*
X193809523Y-118909523D01*
X193761904Y-118814285D01*
X193714285Y-118623809D01*
X193714285Y-118480952D01*
X193761904Y-118290476D01*
X193809523Y-118195238D01*
X193904761Y-118100000D01*
X194047619Y-118052380D01*
X194142857Y-118052380D01*
X194285714Y-118100000D01*
X194333333Y-118147619D01*
X194904761Y-118480952D02*
X194809523Y-118433333D01*
X194761904Y-118385714D01*
X194714285Y-118290476D01*
X194714285Y-118242857D01*
X194761904Y-118147619D01*
X194809523Y-118100000D01*
X194904761Y-118052380D01*
X195095238Y-118052380D01*
X195190476Y-118100000D01*
X195238095Y-118147619D01*
X195285714Y-118242857D01*
X195285714Y-118290476D01*
X195238095Y-118385714D01*
X195190476Y-118433333D01*
X195095238Y-118480952D01*
X194904761Y-118480952D01*
X194809523Y-118528571D01*
X194761904Y-118576190D01*
X194714285Y-118671428D01*
X194714285Y-118861904D01*
X194761904Y-118957142D01*
X194809523Y-119004761D01*
X194904761Y-119052380D01*
X195095238Y-119052380D01*
X195190476Y-119004761D01*
X195238095Y-118957142D01*
X195285714Y-118861904D01*
X195285714Y-118671428D01*
X195238095Y-118576190D01*
X195190476Y-118528571D01*
X195095238Y-118480952D01*
X172833333Y-106657142D02*
X172785714Y-106704761D01*
X172642857Y-106752380D01*
X172547619Y-106752380D01*
X172404761Y-106704761D01*
X172309523Y-106609523D01*
X172261904Y-106514285D01*
X172214285Y-106323809D01*
X172214285Y-106180952D01*
X172261904Y-105990476D01*
X172309523Y-105895238D01*
X172404761Y-105800000D01*
X172547619Y-105752380D01*
X172642857Y-105752380D01*
X172785714Y-105800000D01*
X172833333Y-105847619D01*
X173309523Y-106752380D02*
X173500000Y-106752380D01*
X173595238Y-106704761D01*
X173642857Y-106657142D01*
X173738095Y-106514285D01*
X173785714Y-106323809D01*
X173785714Y-105942857D01*
X173738095Y-105847619D01*
X173690476Y-105800000D01*
X173595238Y-105752380D01*
X173404761Y-105752380D01*
X173309523Y-105800000D01*
X173261904Y-105847619D01*
X173214285Y-105942857D01*
X173214285Y-106180952D01*
X173261904Y-106276190D01*
X173309523Y-106323809D01*
X173404761Y-106371428D01*
X173595238Y-106371428D01*
X173690476Y-106323809D01*
X173738095Y-106276190D01*
X173785714Y-106180952D01*
X171457142Y-118457142D02*
X171409523Y-118504761D01*
X171266666Y-118552380D01*
X171171428Y-118552380D01*
X171028571Y-118504761D01*
X170933333Y-118409523D01*
X170885714Y-118314285D01*
X170838095Y-118123809D01*
X170838095Y-117980952D01*
X170885714Y-117790476D01*
X170933333Y-117695238D01*
X171028571Y-117600000D01*
X171171428Y-117552380D01*
X171266666Y-117552380D01*
X171409523Y-117600000D01*
X171457142Y-117647619D01*
X172409523Y-118552380D02*
X171838095Y-118552380D01*
X172123809Y-118552380D02*
X172123809Y-117552380D01*
X172028571Y-117695238D01*
X171933333Y-117790476D01*
X171838095Y-117838095D01*
X173028571Y-117552380D02*
X173123809Y-117552380D01*
X173219047Y-117600000D01*
X173266666Y-117647619D01*
X173314285Y-117742857D01*
X173361904Y-117933333D01*
X173361904Y-118171428D01*
X173314285Y-118361904D01*
X173266666Y-118457142D01*
X173219047Y-118504761D01*
X173123809Y-118552380D01*
X173028571Y-118552380D01*
X172933333Y-118504761D01*
X172885714Y-118457142D01*
X172838095Y-118361904D01*
X172790476Y-118171428D01*
X172790476Y-117933333D01*
X172838095Y-117742857D01*
X172885714Y-117647619D01*
X172933333Y-117600000D01*
X173028571Y-117552380D01*
X155157142Y-106757142D02*
X155109523Y-106804761D01*
X154966666Y-106852380D01*
X154871428Y-106852380D01*
X154728571Y-106804761D01*
X154633333Y-106709523D01*
X154585714Y-106614285D01*
X154538095Y-106423809D01*
X154538095Y-106280952D01*
X154585714Y-106090476D01*
X154633333Y-105995238D01*
X154728571Y-105900000D01*
X154871428Y-105852380D01*
X154966666Y-105852380D01*
X155109523Y-105900000D01*
X155157142Y-105947619D01*
X156109523Y-106852380D02*
X155538095Y-106852380D01*
X155823809Y-106852380D02*
X155823809Y-105852380D01*
X155728571Y-105995238D01*
X155633333Y-106090476D01*
X155538095Y-106138095D01*
X157061904Y-106852380D02*
X156490476Y-106852380D01*
X156776190Y-106852380D02*
X156776190Y-105852380D01*
X156680952Y-105995238D01*
X156585714Y-106090476D01*
X156490476Y-106138095D01*
X203357142Y-118957142D02*
X203309523Y-119004761D01*
X203166666Y-119052380D01*
X203071428Y-119052380D01*
X202928571Y-119004761D01*
X202833333Y-118909523D01*
X202785714Y-118814285D01*
X202738095Y-118623809D01*
X202738095Y-118480952D01*
X202785714Y-118290476D01*
X202833333Y-118195238D01*
X202928571Y-118100000D01*
X203071428Y-118052380D01*
X203166666Y-118052380D01*
X203309523Y-118100000D01*
X203357142Y-118147619D01*
X204309523Y-119052380D02*
X203738095Y-119052380D01*
X204023809Y-119052380D02*
X204023809Y-118052380D01*
X203928571Y-118195238D01*
X203833333Y-118290476D01*
X203738095Y-118338095D01*
X204690476Y-118147619D02*
X204738095Y-118100000D01*
X204833333Y-118052380D01*
X205071428Y-118052380D01*
X205166666Y-118100000D01*
X205214285Y-118147619D01*
X205261904Y-118242857D01*
X205261904Y-118338095D01*
X205214285Y-118480952D01*
X204642857Y-119052380D01*
X205261904Y-119052380D01*
X182957142Y-101657142D02*
X182909523Y-101704761D01*
X182766666Y-101752380D01*
X182671428Y-101752380D01*
X182528571Y-101704761D01*
X182433333Y-101609523D01*
X182385714Y-101514285D01*
X182338095Y-101323809D01*
X182338095Y-101180952D01*
X182385714Y-100990476D01*
X182433333Y-100895238D01*
X182528571Y-100800000D01*
X182671428Y-100752380D01*
X182766666Y-100752380D01*
X182909523Y-100800000D01*
X182957142Y-100847619D01*
X183909523Y-101752380D02*
X183338095Y-101752380D01*
X183623809Y-101752380D02*
X183623809Y-100752380D01*
X183528571Y-100895238D01*
X183433333Y-100990476D01*
X183338095Y-101038095D01*
X184242857Y-100752380D02*
X184861904Y-100752380D01*
X184528571Y-101133333D01*
X184671428Y-101133333D01*
X184766666Y-101180952D01*
X184814285Y-101228571D01*
X184861904Y-101323809D01*
X184861904Y-101561904D01*
X184814285Y-101657142D01*
X184766666Y-101704761D01*
X184671428Y-101752380D01*
X184385714Y-101752380D01*
X184290476Y-101704761D01*
X184242857Y-101657142D01*
X206361904Y-122352380D02*
X206361904Y-121352380D01*
X206600000Y-121352380D01*
X206742857Y-121400000D01*
X206838095Y-121495238D01*
X206885714Y-121590476D01*
X206933333Y-121780952D01*
X206933333Y-121923809D01*
X206885714Y-122114285D01*
X206838095Y-122209523D01*
X206742857Y-122304761D01*
X206600000Y-122352380D01*
X206361904Y-122352380D01*
X207885714Y-122352380D02*
X207314285Y-122352380D01*
X207600000Y-122352380D02*
X207600000Y-121352380D01*
X207504761Y-121495238D01*
X207409523Y-121590476D01*
X207314285Y-121638095D01*
X206361904Y-123752380D02*
X206361904Y-122752380D01*
X206600000Y-122752380D01*
X206742857Y-122800000D01*
X206838095Y-122895238D01*
X206885714Y-122990476D01*
X206933333Y-123180952D01*
X206933333Y-123323809D01*
X206885714Y-123514285D01*
X206838095Y-123609523D01*
X206742857Y-123704761D01*
X206600000Y-123752380D01*
X206361904Y-123752380D01*
X207314285Y-122847619D02*
X207361904Y-122800000D01*
X207457142Y-122752380D01*
X207695238Y-122752380D01*
X207790476Y-122800000D01*
X207838095Y-122847619D01*
X207885714Y-122942857D01*
X207885714Y-123038095D01*
X207838095Y-123180952D01*
X207266666Y-123752380D01*
X207885714Y-123752380D01*
X170233333Y-102152380D02*
X169900000Y-101676190D01*
X169661904Y-102152380D02*
X169661904Y-101152380D01*
X170042857Y-101152380D01*
X170138095Y-101200000D01*
X170185714Y-101247619D01*
X170233333Y-101342857D01*
X170233333Y-101485714D01*
X170185714Y-101580952D01*
X170138095Y-101628571D01*
X170042857Y-101676190D01*
X169661904Y-101676190D01*
X171185714Y-102152380D02*
X170614285Y-102152380D01*
X170900000Y-102152380D02*
X170900000Y-101152380D01*
X170804761Y-101295238D01*
X170709523Y-101390476D01*
X170614285Y-101438095D01*
X156033333Y-103552380D02*
X155700000Y-103076190D01*
X155461904Y-103552380D02*
X155461904Y-102552380D01*
X155842857Y-102552380D01*
X155938095Y-102600000D01*
X155985714Y-102647619D01*
X156033333Y-102742857D01*
X156033333Y-102885714D01*
X155985714Y-102980952D01*
X155938095Y-103028571D01*
X155842857Y-103076190D01*
X155461904Y-103076190D01*
X156414285Y-102647619D02*
X156461904Y-102600000D01*
X156557142Y-102552380D01*
X156795238Y-102552380D01*
X156890476Y-102600000D01*
X156938095Y-102647619D01*
X156985714Y-102742857D01*
X156985714Y-102838095D01*
X156938095Y-102980952D01*
X156366666Y-103552380D01*
X156985714Y-103552380D01*
X189252380Y-116166666D02*
X188776190Y-116500000D01*
X189252380Y-116738095D02*
X188252380Y-116738095D01*
X188252380Y-116357142D01*
X188300000Y-116261904D01*
X188347619Y-116214285D01*
X188442857Y-116166666D01*
X188585714Y-116166666D01*
X188680952Y-116214285D01*
X188728571Y-116261904D01*
X188776190Y-116357142D01*
X188776190Y-116738095D01*
X188252380Y-115833333D02*
X188252380Y-115214285D01*
X188633333Y-115547619D01*
X188633333Y-115404761D01*
X188680952Y-115309523D01*
X188728571Y-115261904D01*
X188823809Y-115214285D01*
X189061904Y-115214285D01*
X189157142Y-115261904D01*
X189204761Y-115309523D01*
X189252380Y-115404761D01*
X189252380Y-115690476D01*
X189204761Y-115785714D01*
X189157142Y-115833333D01*
X172833333Y-105152380D02*
X172500000Y-104676190D01*
X172261904Y-105152380D02*
X172261904Y-104152380D01*
X172642857Y-104152380D01*
X172738095Y-104200000D01*
X172785714Y-104247619D01*
X172833333Y-104342857D01*
X172833333Y-104485714D01*
X172785714Y-104580952D01*
X172738095Y-104628571D01*
X172642857Y-104676190D01*
X172261904Y-104676190D01*
X173690476Y-104485714D02*
X173690476Y-105152380D01*
X173452380Y-104104761D02*
X173214285Y-104819047D01*
X173833333Y-104819047D01*
X194333333Y-117652380D02*
X194000000Y-117176190D01*
X193761904Y-117652380D02*
X193761904Y-116652380D01*
X194142857Y-116652380D01*
X194238095Y-116700000D01*
X194285714Y-116747619D01*
X194333333Y-116842857D01*
X194333333Y-116985714D01*
X194285714Y-117080952D01*
X194238095Y-117128571D01*
X194142857Y-117176190D01*
X193761904Y-117176190D01*
X195238095Y-116652380D02*
X194761904Y-116652380D01*
X194714285Y-117128571D01*
X194761904Y-117080952D01*
X194857142Y-117033333D01*
X195095238Y-117033333D01*
X195190476Y-117080952D01*
X195238095Y-117128571D01*
X195285714Y-117223809D01*
X195285714Y-117461904D01*
X195238095Y-117557142D01*
X195190476Y-117604761D01*
X195095238Y-117652380D01*
X194857142Y-117652380D01*
X194761904Y-117604761D01*
X194714285Y-117557142D01*
X191220833Y-116052380D02*
X190887500Y-115576190D01*
X190649404Y-116052380D02*
X190649404Y-115052380D01*
X191030357Y-115052380D01*
X191125595Y-115100000D01*
X191173214Y-115147619D01*
X191220833Y-115242857D01*
X191220833Y-115385714D01*
X191173214Y-115480952D01*
X191125595Y-115528571D01*
X191030357Y-115576190D01*
X190649404Y-115576190D01*
X192077976Y-115052380D02*
X191887500Y-115052380D01*
X191792261Y-115100000D01*
X191744642Y-115147619D01*
X191649404Y-115290476D01*
X191601785Y-115480952D01*
X191601785Y-115861904D01*
X191649404Y-115957142D01*
X191697023Y-116004761D01*
X191792261Y-116052380D01*
X191982738Y-116052380D01*
X192077976Y-116004761D01*
X192125595Y-115957142D01*
X192173214Y-115861904D01*
X192173214Y-115623809D01*
X192125595Y-115528571D01*
X192077976Y-115480952D01*
X191982738Y-115433333D01*
X191792261Y-115433333D01*
X191697023Y-115480952D01*
X191649404Y-115528571D01*
X191601785Y-115623809D01*
X198652380Y-116166666D02*
X198176190Y-116500000D01*
X198652380Y-116738095D02*
X197652380Y-116738095D01*
X197652380Y-116357142D01*
X197700000Y-116261904D01*
X197747619Y-116214285D01*
X197842857Y-116166666D01*
X197985714Y-116166666D01*
X198080952Y-116214285D01*
X198128571Y-116261904D01*
X198176190Y-116357142D01*
X198176190Y-116738095D01*
X197652380Y-115833333D02*
X197652380Y-115166666D01*
X198652380Y-115595238D01*
X172733333Y-121552380D02*
X172400000Y-121076190D01*
X172161904Y-121552380D02*
X172161904Y-120552380D01*
X172542857Y-120552380D01*
X172638095Y-120600000D01*
X172685714Y-120647619D01*
X172733333Y-120742857D01*
X172733333Y-120885714D01*
X172685714Y-120980952D01*
X172638095Y-121028571D01*
X172542857Y-121076190D01*
X172161904Y-121076190D01*
X173304761Y-120980952D02*
X173209523Y-120933333D01*
X173161904Y-120885714D01*
X173114285Y-120790476D01*
X173114285Y-120742857D01*
X173161904Y-120647619D01*
X173209523Y-120600000D01*
X173304761Y-120552380D01*
X173495238Y-120552380D01*
X173590476Y-120600000D01*
X173638095Y-120647619D01*
X173685714Y-120742857D01*
X173685714Y-120790476D01*
X173638095Y-120885714D01*
X173590476Y-120933333D01*
X173495238Y-120980952D01*
X173304761Y-120980952D01*
X173209523Y-121028571D01*
X173161904Y-121076190D01*
X173114285Y-121171428D01*
X173114285Y-121361904D01*
X173161904Y-121457142D01*
X173209523Y-121504761D01*
X173304761Y-121552380D01*
X173495238Y-121552380D01*
X173590476Y-121504761D01*
X173638095Y-121457142D01*
X173685714Y-121361904D01*
X173685714Y-121171428D01*
X173638095Y-121076190D01*
X173590476Y-121028571D01*
X173495238Y-120980952D01*
X156033333Y-108352380D02*
X155700000Y-107876190D01*
X155461904Y-108352380D02*
X155461904Y-107352380D01*
X155842857Y-107352380D01*
X155938095Y-107400000D01*
X155985714Y-107447619D01*
X156033333Y-107542857D01*
X156033333Y-107685714D01*
X155985714Y-107780952D01*
X155938095Y-107828571D01*
X155842857Y-107876190D01*
X155461904Y-107876190D01*
X156509523Y-108352380D02*
X156700000Y-108352380D01*
X156795238Y-108304761D01*
X156842857Y-108257142D01*
X156938095Y-108114285D01*
X156985714Y-107923809D01*
X156985714Y-107542857D01*
X156938095Y-107447619D01*
X156890476Y-107400000D01*
X156795238Y-107352380D01*
X156604761Y-107352380D01*
X156509523Y-107400000D01*
X156461904Y-107447619D01*
X156414285Y-107542857D01*
X156414285Y-107780952D01*
X156461904Y-107876190D01*
X156509523Y-107923809D01*
X156604761Y-107971428D01*
X156795238Y-107971428D01*
X156890476Y-107923809D01*
X156938095Y-107876190D01*
X156985714Y-107780952D01*
X203357142Y-117652380D02*
X203023809Y-117176190D01*
X202785714Y-117652380D02*
X202785714Y-116652380D01*
X203166666Y-116652380D01*
X203261904Y-116700000D01*
X203309523Y-116747619D01*
X203357142Y-116842857D01*
X203357142Y-116985714D01*
X203309523Y-117080952D01*
X203261904Y-117128571D01*
X203166666Y-117176190D01*
X202785714Y-117176190D01*
X204309523Y-117652380D02*
X203738095Y-117652380D01*
X204023809Y-117652380D02*
X204023809Y-116652380D01*
X203928571Y-116795238D01*
X203833333Y-116890476D01*
X203738095Y-116938095D01*
X204928571Y-116652380D02*
X205023809Y-116652380D01*
X205119047Y-116700000D01*
X205166666Y-116747619D01*
X205214285Y-116842857D01*
X205261904Y-117033333D01*
X205261904Y-117271428D01*
X205214285Y-117461904D01*
X205166666Y-117557142D01*
X205119047Y-117604761D01*
X205023809Y-117652380D01*
X204928571Y-117652380D01*
X204833333Y-117604761D01*
X204785714Y-117557142D01*
X204738095Y-117461904D01*
X204690476Y-117271428D01*
X204690476Y-117033333D01*
X204738095Y-116842857D01*
X204785714Y-116747619D01*
X204833333Y-116700000D01*
X204928571Y-116652380D01*
X200144642Y-116052380D02*
X199811309Y-115576190D01*
X199573214Y-116052380D02*
X199573214Y-115052380D01*
X199954166Y-115052380D01*
X200049404Y-115100000D01*
X200097023Y-115147619D01*
X200144642Y-115242857D01*
X200144642Y-115385714D01*
X200097023Y-115480952D01*
X200049404Y-115528571D01*
X199954166Y-115576190D01*
X199573214Y-115576190D01*
X201097023Y-116052380D02*
X200525595Y-116052380D01*
X200811309Y-116052380D02*
X200811309Y-115052380D01*
X200716071Y-115195238D01*
X200620833Y-115290476D01*
X200525595Y-115338095D01*
X202049404Y-116052380D02*
X201477976Y-116052380D01*
X201763690Y-116052380D02*
X201763690Y-115052380D01*
X201668452Y-115195238D01*
X201573214Y-115290476D01*
X201477976Y-115338095D01*
X156657142Y-116452380D02*
X156323809Y-115976190D01*
X156085714Y-116452380D02*
X156085714Y-115452380D01*
X156466666Y-115452380D01*
X156561904Y-115500000D01*
X156609523Y-115547619D01*
X156657142Y-115642857D01*
X156657142Y-115785714D01*
X156609523Y-115880952D01*
X156561904Y-115928571D01*
X156466666Y-115976190D01*
X156085714Y-115976190D01*
X157609523Y-116452380D02*
X157038095Y-116452380D01*
X157323809Y-116452380D02*
X157323809Y-115452380D01*
X157228571Y-115595238D01*
X157133333Y-115690476D01*
X157038095Y-115738095D01*
X157990476Y-115547619D02*
X158038095Y-115500000D01*
X158133333Y-115452380D01*
X158371428Y-115452380D01*
X158466666Y-115500000D01*
X158514285Y-115547619D01*
X158561904Y-115642857D01*
X158561904Y-115738095D01*
X158514285Y-115880952D01*
X157942857Y-116452380D01*
X158561904Y-116452380D01*
X149357142Y-116352380D02*
X149023809Y-115876190D01*
X148785714Y-116352380D02*
X148785714Y-115352380D01*
X149166666Y-115352380D01*
X149261904Y-115400000D01*
X149309523Y-115447619D01*
X149357142Y-115542857D01*
X149357142Y-115685714D01*
X149309523Y-115780952D01*
X149261904Y-115828571D01*
X149166666Y-115876190D01*
X148785714Y-115876190D01*
X150309523Y-116352380D02*
X149738095Y-116352380D01*
X150023809Y-116352380D02*
X150023809Y-115352380D01*
X149928571Y-115495238D01*
X149833333Y-115590476D01*
X149738095Y-115638095D01*
X150642857Y-115352380D02*
X151261904Y-115352380D01*
X150928571Y-115733333D01*
X151071428Y-115733333D01*
X151166666Y-115780952D01*
X151214285Y-115828571D01*
X151261904Y-115923809D01*
X151261904Y-116161904D01*
X151214285Y-116257142D01*
X151166666Y-116304761D01*
X151071428Y-116352380D01*
X150785714Y-116352380D01*
X150690476Y-116304761D01*
X150642857Y-116257142D01*
X153557142Y-111702380D02*
X153223809Y-111226190D01*
X152985714Y-111702380D02*
X152985714Y-110702380D01*
X153366666Y-110702380D01*
X153461904Y-110750000D01*
X153509523Y-110797619D01*
X153557142Y-110892857D01*
X153557142Y-111035714D01*
X153509523Y-111130952D01*
X153461904Y-111178571D01*
X153366666Y-111226190D01*
X152985714Y-111226190D01*
X154509523Y-111702380D02*
X153938095Y-111702380D01*
X154223809Y-111702380D02*
X154223809Y-110702380D01*
X154128571Y-110845238D01*
X154033333Y-110940476D01*
X153938095Y-110988095D01*
X155366666Y-111035714D02*
X155366666Y-111702380D01*
X155128571Y-110654761D02*
X154890476Y-111369047D01*
X155509523Y-111369047D01*
X149344642Y-110202380D02*
X149011309Y-109726190D01*
X148773214Y-110202380D02*
X148773214Y-109202380D01*
X149154166Y-109202380D01*
X149249404Y-109250000D01*
X149297023Y-109297619D01*
X149344642Y-109392857D01*
X149344642Y-109535714D01*
X149297023Y-109630952D01*
X149249404Y-109678571D01*
X149154166Y-109726190D01*
X148773214Y-109726190D01*
X150297023Y-110202380D02*
X149725595Y-110202380D01*
X150011309Y-110202380D02*
X150011309Y-109202380D01*
X149916071Y-109345238D01*
X149820833Y-109440476D01*
X149725595Y-109488095D01*
X151201785Y-109202380D02*
X150725595Y-109202380D01*
X150677976Y-109678571D01*
X150725595Y-109630952D01*
X150820833Y-109583333D01*
X151058928Y-109583333D01*
X151154166Y-109630952D01*
X151201785Y-109678571D01*
X151249404Y-109773809D01*
X151249404Y-110011904D01*
X151201785Y-110107142D01*
X151154166Y-110154761D01*
X151058928Y-110202380D01*
X150820833Y-110202380D01*
X150725595Y-110154761D01*
X150677976Y-110107142D01*
X210157142Y-122352380D02*
X209823809Y-121876190D01*
X209585714Y-122352380D02*
X209585714Y-121352380D01*
X209966666Y-121352380D01*
X210061904Y-121400000D01*
X210109523Y-121447619D01*
X210157142Y-121542857D01*
X210157142Y-121685714D01*
X210109523Y-121780952D01*
X210061904Y-121828571D01*
X209966666Y-121876190D01*
X209585714Y-121876190D01*
X211109523Y-122352380D02*
X210538095Y-122352380D01*
X210823809Y-122352380D02*
X210823809Y-121352380D01*
X210728571Y-121495238D01*
X210633333Y-121590476D01*
X210538095Y-121638095D01*
X211966666Y-121352380D02*
X211776190Y-121352380D01*
X211680952Y-121400000D01*
X211633333Y-121447619D01*
X211538095Y-121590476D01*
X211490476Y-121780952D01*
X211490476Y-122161904D01*
X211538095Y-122257142D01*
X211585714Y-122304761D01*
X211680952Y-122352380D01*
X211871428Y-122352380D01*
X211966666Y-122304761D01*
X212014285Y-122257142D01*
X212061904Y-122161904D01*
X212061904Y-121923809D01*
X212014285Y-121828571D01*
X211966666Y-121780952D01*
X211871428Y-121733333D01*
X211680952Y-121733333D01*
X211585714Y-121780952D01*
X211538095Y-121828571D01*
X211490476Y-121923809D01*
X210157142Y-123752380D02*
X209823809Y-123276190D01*
X209585714Y-123752380D02*
X209585714Y-122752380D01*
X209966666Y-122752380D01*
X210061904Y-122800000D01*
X210109523Y-122847619D01*
X210157142Y-122942857D01*
X210157142Y-123085714D01*
X210109523Y-123180952D01*
X210061904Y-123228571D01*
X209966666Y-123276190D01*
X209585714Y-123276190D01*
X211109523Y-123752380D02*
X210538095Y-123752380D01*
X210823809Y-123752380D02*
X210823809Y-122752380D01*
X210728571Y-122895238D01*
X210633333Y-122990476D01*
X210538095Y-123038095D01*
X211442857Y-122752380D02*
X212109523Y-122752380D01*
X211680952Y-123752380D01*
X149357142Y-123622380D02*
X149023809Y-123146190D01*
X148785714Y-123622380D02*
X148785714Y-122622380D01*
X149166666Y-122622380D01*
X149261904Y-122670000D01*
X149309523Y-122717619D01*
X149357142Y-122812857D01*
X149357142Y-122955714D01*
X149309523Y-123050952D01*
X149261904Y-123098571D01*
X149166666Y-123146190D01*
X148785714Y-123146190D01*
X150309523Y-123622380D02*
X149738095Y-123622380D01*
X150023809Y-123622380D02*
X150023809Y-122622380D01*
X149928571Y-122765238D01*
X149833333Y-122860476D01*
X149738095Y-122908095D01*
X150880952Y-123050952D02*
X150785714Y-123003333D01*
X150738095Y-122955714D01*
X150690476Y-122860476D01*
X150690476Y-122812857D01*
X150738095Y-122717619D01*
X150785714Y-122670000D01*
X150880952Y-122622380D01*
X151071428Y-122622380D01*
X151166666Y-122670000D01*
X151214285Y-122717619D01*
X151261904Y-122812857D01*
X151261904Y-122860476D01*
X151214285Y-122955714D01*
X151166666Y-123003333D01*
X151071428Y-123050952D01*
X150880952Y-123050952D01*
X150785714Y-123098571D01*
X150738095Y-123146190D01*
X150690476Y-123241428D01*
X150690476Y-123431904D01*
X150738095Y-123527142D01*
X150785714Y-123574761D01*
X150880952Y-123622380D01*
X151071428Y-123622380D01*
X151166666Y-123574761D01*
X151214285Y-123527142D01*
X151261904Y-123431904D01*
X151261904Y-123241428D01*
X151214285Y-123146190D01*
X151166666Y-123098571D01*
X151071428Y-123050952D01*
X149357142Y-108702380D02*
X149023809Y-108226190D01*
X148785714Y-108702380D02*
X148785714Y-107702380D01*
X149166666Y-107702380D01*
X149261904Y-107750000D01*
X149309523Y-107797619D01*
X149357142Y-107892857D01*
X149357142Y-108035714D01*
X149309523Y-108130952D01*
X149261904Y-108178571D01*
X149166666Y-108226190D01*
X148785714Y-108226190D01*
X150309523Y-108702380D02*
X149738095Y-108702380D01*
X150023809Y-108702380D02*
X150023809Y-107702380D01*
X149928571Y-107845238D01*
X149833333Y-107940476D01*
X149738095Y-107988095D01*
X150785714Y-108702380D02*
X150976190Y-108702380D01*
X151071428Y-108654761D01*
X151119047Y-108607142D01*
X151214285Y-108464285D01*
X151261904Y-108273809D01*
X151261904Y-107892857D01*
X151214285Y-107797619D01*
X151166666Y-107750000D01*
X151071428Y-107702380D01*
X150880952Y-107702380D01*
X150785714Y-107750000D01*
X150738095Y-107797619D01*
X150690476Y-107892857D01*
X150690476Y-108130952D01*
X150738095Y-108226190D01*
X150785714Y-108273809D01*
X150880952Y-108321428D01*
X151071428Y-108321428D01*
X151166666Y-108273809D01*
X151214285Y-108226190D01*
X151261904Y-108130952D01*
X153557142Y-110202380D02*
X153223809Y-109726190D01*
X152985714Y-110202380D02*
X152985714Y-109202380D01*
X153366666Y-109202380D01*
X153461904Y-109250000D01*
X153509523Y-109297619D01*
X153557142Y-109392857D01*
X153557142Y-109535714D01*
X153509523Y-109630952D01*
X153461904Y-109678571D01*
X153366666Y-109726190D01*
X152985714Y-109726190D01*
X153938095Y-109297619D02*
X153985714Y-109250000D01*
X154080952Y-109202380D01*
X154319047Y-109202380D01*
X154414285Y-109250000D01*
X154461904Y-109297619D01*
X154509523Y-109392857D01*
X154509523Y-109488095D01*
X154461904Y-109630952D01*
X153890476Y-110202380D01*
X154509523Y-110202380D01*
X155128571Y-109202380D02*
X155223809Y-109202380D01*
X155319047Y-109250000D01*
X155366666Y-109297619D01*
X155414285Y-109392857D01*
X155461904Y-109583333D01*
X155461904Y-109821428D01*
X155414285Y-110011904D01*
X155366666Y-110107142D01*
X155319047Y-110154761D01*
X155223809Y-110202380D01*
X155128571Y-110202380D01*
X155033333Y-110154761D01*
X154985714Y-110107142D01*
X154938095Y-110011904D01*
X154890476Y-109821428D01*
X154890476Y-109583333D01*
X154938095Y-109392857D01*
X154985714Y-109297619D01*
X155033333Y-109250000D01*
X155128571Y-109202380D01*
X155157142Y-105252380D02*
X154823809Y-104776190D01*
X154585714Y-105252380D02*
X154585714Y-104252380D01*
X154966666Y-104252380D01*
X155061904Y-104300000D01*
X155109523Y-104347619D01*
X155157142Y-104442857D01*
X155157142Y-104585714D01*
X155109523Y-104680952D01*
X155061904Y-104728571D01*
X154966666Y-104776190D01*
X154585714Y-104776190D01*
X155538095Y-104347619D02*
X155585714Y-104300000D01*
X155680952Y-104252380D01*
X155919047Y-104252380D01*
X156014285Y-104300000D01*
X156061904Y-104347619D01*
X156109523Y-104442857D01*
X156109523Y-104538095D01*
X156061904Y-104680952D01*
X155490476Y-105252380D01*
X156109523Y-105252380D01*
X157061904Y-105252380D02*
X156490476Y-105252380D01*
X156776190Y-105252380D02*
X156776190Y-104252380D01*
X156680952Y-104395238D01*
X156585714Y-104490476D01*
X156490476Y-104538095D01*
X163838095Y-107552380D02*
X163838095Y-108361904D01*
X163885714Y-108457142D01*
X163933333Y-108504761D01*
X164028571Y-108552380D01*
X164219047Y-108552380D01*
X164314285Y-108504761D01*
X164361904Y-108457142D01*
X164409523Y-108361904D01*
X164409523Y-107552380D01*
X165409523Y-108552380D02*
X164838095Y-108552380D01*
X165123809Y-108552380D02*
X165123809Y-107552380D01*
X165028571Y-107695238D01*
X164933333Y-107790476D01*
X164838095Y-107838095D01*
X163838095Y-120632380D02*
X163838095Y-121441904D01*
X163885714Y-121537142D01*
X163933333Y-121584761D01*
X164028571Y-121632380D01*
X164219047Y-121632380D01*
X164314285Y-121584761D01*
X164361904Y-121537142D01*
X164409523Y-121441904D01*
X164409523Y-120632380D01*
X165314285Y-120965714D02*
X165314285Y-121632380D01*
X165076190Y-120584761D02*
X164838095Y-121299047D01*
X165457142Y-121299047D01*
X180638095Y-107552380D02*
X180638095Y-108361904D01*
X180685714Y-108457142D01*
X180733333Y-108504761D01*
X180828571Y-108552380D01*
X181019047Y-108552380D01*
X181114285Y-108504761D01*
X181161904Y-108457142D01*
X181209523Y-108361904D01*
X181209523Y-107552380D01*
X182114285Y-107552380D02*
X181923809Y-107552380D01*
X181828571Y-107600000D01*
X181780952Y-107647619D01*
X181685714Y-107790476D01*
X181638095Y-107980952D01*
X181638095Y-108361904D01*
X181685714Y-108457142D01*
X181733333Y-108504761D01*
X181828571Y-108552380D01*
X182019047Y-108552380D01*
X182114285Y-108504761D01*
X182161904Y-108457142D01*
X182209523Y-108361904D01*
X182209523Y-108123809D01*
X182161904Y-108028571D01*
X182114285Y-107980952D01*
X182019047Y-107933333D01*
X181828571Y-107933333D01*
X181733333Y-107980952D01*
X181685714Y-108028571D01*
X181638095Y-108123809D01*
X196957142Y-109666666D02*
X197004761Y-109714285D01*
X197052380Y-109857142D01*
X197052380Y-109952380D01*
X197004761Y-110095238D01*
X196909523Y-110190476D01*
X196814285Y-110238095D01*
X196623809Y-110285714D01*
X196480952Y-110285714D01*
X196290476Y-110238095D01*
X196195238Y-110190476D01*
X196100000Y-110095238D01*
X196052380Y-109952380D01*
X196052380Y-109857142D01*
X196100000Y-109714285D01*
X196147619Y-109666666D01*
X197052380Y-108714285D02*
X197052380Y-109285714D01*
X197052380Y-109000000D02*
X196052380Y-109000000D01*
X196195238Y-109095238D01*
X196290476Y-109190476D01*
X196338095Y-109285714D01*
X187557142Y-109666666D02*
X187604761Y-109714285D01*
X187652380Y-109857142D01*
X187652380Y-109952380D01*
X187604761Y-110095238D01*
X187509523Y-110190476D01*
X187414285Y-110238095D01*
X187223809Y-110285714D01*
X187080952Y-110285714D01*
X186890476Y-110238095D01*
X186795238Y-110190476D01*
X186700000Y-110095238D01*
X186652380Y-109952380D01*
X186652380Y-109857142D01*
X186700000Y-109714285D01*
X186747619Y-109666666D01*
X186747619Y-109285714D02*
X186700000Y-109238095D01*
X186652380Y-109142857D01*
X186652380Y-108904761D01*
X186700000Y-108809523D01*
X186747619Y-108761904D01*
X186842857Y-108714285D01*
X186938095Y-108714285D01*
X187080952Y-108761904D01*
X187652380Y-109333333D01*
X187652380Y-108714285D01*
M02*
