M48
; DRILL file {KiCad 5.1.5+dfsg1-2build2} date Mon 19 Oct 2020 11:11:42 PM PDT
; FORMAT={-:-/ absolute / inch / decimal}
; #@! TF.CreationDate,2020-10-19T23:11:42-07:00
; #@! TF.GenerationSoftware,Kicad,Pcbnew,5.1.5+dfsg1-2build2
; #@! TF.FileFunction,Plated,1,2,PTH
FMAT,2
INCH
T1C0.0157
T2C0.0256
T3C0.0394
T4C0.0551
T5C0.1260
%
G90
G05
T1
X5.815Y-4.437
X5.8307Y-5.0079
X5.9882Y-4.437
X6.0044Y-4.1343
X6.0354Y-4.1654
X6.0472Y-3.9843
X6.1299Y-4.126
X6.1378Y-5.0079
X6.1811Y-4.374
X6.248Y-4.4291
X6.3219Y-4.1714
X6.3701Y-4.2402
X6.3701Y-4.3228
X6.4252Y-4.6102
X6.4331Y-4.5551
X6.4488Y-4.0787
X6.4492Y-4.122
X6.4961Y-4.2008
X6.4961Y-4.5837
X6.5118Y-4.1378
X6.5276Y-4.6142
X6.5906Y-4.7559
X6.5945Y-4.5866
X6.7215Y-4.5866
X6.7795Y-4.185
X6.7795Y-4.7047
X6.8071Y-4.0433
X6.8543Y-3.9843
X6.8858Y-4.689
X6.9291Y-4.1614
X7.0551Y-4.2362
X7.1063Y-4.0787
X7.2087Y-4.5472
X7.2283Y-4.2362
X7.2283Y-4.315
X7.2525Y-4.591
X7.3386Y-4.2913
X7.374Y-3.9843
X7.3898Y-4.4961
X7.4291Y-4.2323
X7.4724Y-4.189
X7.5591Y-4.0787
X7.5965Y-4.4469
X7.7441Y-3.9843
X7.7992Y-4.2323
X7.8425Y-4.1772
X7.874Y-4.5315
X7.937Y-4.0433
X7.9665Y-4.4469
X8.0748Y-5.0039
X8.1175Y-4.1318
X8.1299Y-4.0945
T2
X5.8921Y-4.6547
X5.8921Y-4.7047
X5.9421Y-4.6547
X5.9421Y-4.7047
X5.9921Y-4.6547
X5.9921Y-4.7047
X6.0421Y-4.6547
X6.0421Y-4.7047
X6.0921Y-4.6547
X6.0921Y-4.7047
T3
X8.5319Y-4.3276
X8.5319Y-4.4276
X8.5319Y-4.5276
X8.5319Y-4.6276
X8.5319Y-4.7276
X8.6319Y-4.3276
X8.6319Y-4.4276
X8.6319Y-4.5276
X8.6319Y-4.6276
X8.6319Y-4.7276
X5.58Y-4.3307
X5.58Y-4.4307
X5.58Y-4.5307
X5.58Y-4.6307
X5.58Y-4.7307
X5.68Y-4.3307
X5.68Y-4.4307
X5.68Y-4.5307
X5.68Y-4.6307
X5.68Y-4.7307
T4
X6.2183Y-4.92
X6.4152Y-4.92
X6.612Y-4.92
X6.8089Y-4.92
X7.0057Y-4.92
X7.2026Y-4.92
X7.3994Y-4.92
X7.5963Y-4.92
X7.7931Y-4.92
X7.99Y-4.92
T5
X5.6693Y-4.0945
X5.6693Y-4.9606
X8.5433Y-4.9606
X8.5433Y-4.0945
T0
M30
